<svg width="56" height="56" viewBox="0 0 56 56" fill="none" xmlns="http://www.w3.org/2000/svg">
<path d="M8 27.6441C8 32.8584 10.0731 37.8591 13.7633 41.5461C17.4534 45.2332 22.4583 47.3046 27.677 47.3046C27.677 42.0904 25.6039 37.0896 21.9138 33.4025C18.2236 29.7155 13.2187 27.6441 8 27.6441Z" fill="white"/>
<path d="M47.3047 27.6853C42.0969 27.6853 37.1025 29.7523 33.42 33.4316C29.7375 37.111 27.6688 42.1013 27.6688 47.3047C32.8765 47.3047 37.871 45.2376 41.5535 41.5582C45.2359 37.8789 47.3047 32.8887 47.3047 27.6853Z" fill="white"/>
<path d="M38.2223 22.4211C37.2493 20.4547 35.7466 18.7985 33.8832 17.6386C32.0199 16.4787 29.8696 15.861 27.6742 15.8551C25.4788 15.8491 23.3253 16.455 21.4556 17.6048C19.5859 18.7546 18.0743 20.4025 17.0905 22.3635L20.6084 24.1292C21.2645 22.8215 22.2729 21.7228 23.52 20.9566C24.7672 20.1904 26.2036 19.7872 27.6676 19.7923C29.1316 19.7975 30.5652 20.2107 31.8069 20.9856C33.0486 21.7605 34.0493 22.8663 34.6963 24.1785L38.2223 22.4211Z" fill="white"/>
<path d="M27.6442 8C23.9965 7.99823 20.4202 9.01047 17.3153 10.9235C14.2104 12.8365 11.6994 15.5748 10.0631 18.8322L13.581 20.5979C14.894 17.9861 16.9094 15.7915 19.4012 14.2604C21.8929 12.7294 24.7624 11.9225 27.6876 11.9302C30.6128 11.9378 33.478 12.7599 35.9617 14.304C38.4454 15.848 40.4493 18.0531 41.7486 20.6718L45.2664 18.9225C43.6396 15.642 41.1276 12.881 38.0138 10.951C34.9 9.02108 31.3084 7.99896 27.6442 8Z" fill="white"/>
</svg>
