<svg width="100" height="100" viewBox="0 0 100 100" fill="none" xmlns="http://www.w3.org/2000/svg">
<path d="M14.2856 49.3649C14.2856 58.6761 17.9876 67.6059 24.5772 74.19C31.1667 80.774 40.1041 84.473 49.4232 84.473C49.4232 75.1618 45.7212 66.2318 39.1316 59.6478C32.5421 53.0638 23.6047 49.3649 14.2856 49.3649Z" fill="#00C4B3"/>
<path d="M84.4726 49.4384C75.173 49.4384 66.2543 53.1295 59.6785 59.6998C53.1027 66.27 49.4084 75.1813 49.4084 84.4731C58.708 84.4731 67.6267 80.7818 74.2025 74.2115C80.7783 67.6413 84.4726 58.7302 84.4726 49.4384Z" fill="#00C4B3"/>
<path d="M68.2541 40.038C66.5165 36.5267 63.8332 33.5692 60.5057 31.4979C57.1782 29.4266 53.3385 28.3237 49.4182 28.313C45.4978 28.3024 41.6522 29.3844 38.3135 31.4376C34.9748 33.4907 32.2754 36.4335 30.5187 39.9353L36.8006 43.0883C37.9723 40.7531 39.7729 38.7912 42 37.423C44.227 36.0548 46.792 35.3347 49.4064 35.3439C52.0207 35.353 54.5806 36.0909 56.798 37.4747C59.0154 38.8585 60.8023 40.8331 61.9575 43.1764L68.2541 40.038Z" fill="#00C4B3"/>
<path d="M49.3646 14.2861C42.8508 14.283 36.4645 16.0905 30.9201 19.5066C25.3757 22.9227 20.8917 27.8126 17.9697 33.6294L24.2516 36.7824C26.5963 32.1184 30.1953 28.1995 34.6449 25.4655C39.0945 22.7315 44.2185 21.2906 49.4421 21.3043C54.6657 21.318 59.7822 22.7859 64.2173 25.5432C68.6525 28.3005 72.2308 32.2381 74.5509 36.9143L80.8328 33.7906C77.9278 27.9326 73.442 23.0022 67.8817 19.5558C62.3214 16.1095 55.9079 14.2843 49.3646 14.2861Z" fill="#00C4B3"/>
</svg>
